<?xml version="1.0" encoding="iso-8859-1"?>
<!-- Generator: Adobe Illustrator 19.0.0, SVG Export Plug-In . SVG Version: 6.00 Build 0)  -->
<svg version="1.1" id="Capa_1" xmlns="http://www.w3.org/2000/svg" xmlns:xlink="http://www.w3.org/1999/xlink" x="0px" y="0px"
	 viewBox="0 0 511.996 511.996" style="enable-background:new 0 0 511.996 511.996;" xml:space="preserve">
<rect x="174.509" y="342.027" transform="matrix(-0.7071 -0.7071 0.7071 -0.7071 15.6708 877.2415)" style="fill:#BF6015;" width="30.019" height="186.697"/>
<path style="fill:#F7F4F0;" d="M136.441,346.22c-75.039,0-136.086-61.048-136.086-136.086c0-45.632,22.7-87.998,60.723-113.328
	l16.644,24.983c-29.647,19.751-47.347,52.777-47.347,88.345c0,58.485,47.581,106.067,106.067,106.067
	c19.585,0,38.713-5.375,55.316-15.546l15.681,25.598C186.113,339.315,161.564,346.22,136.441,346.22z"/>
<path style="fill:#FD4B2D;" d="M255.516,390.598L121.081,256.163L359.014,18.23l134.435,134.435L255.516,390.598z"/>
<rect x="293.34" y="69.786" transform="matrix(0.7071 0.7071 -0.7071 0.7071 268.1482 -171.3148)" style="fill:#E8130F;" width="95.059" height="336.48"/>
<polygon style="fill:#FF6849;" points="511.679,182.116 511.679,0 329.563,0 "/>
<rect x="109.83" y="37.535" transform="matrix(-0.6139 -0.7894 0.7894 -0.6139 149.731 204.3424)" style="fill:#FFDC40;" width="30.019" height="56.036"/>
<rect x="64.573" y="11.787" transform="matrix(-0.9923 -0.124 0.124 -0.9923 153.6164 89.1722)" style="fill:#FFAB15;" width="30.02" height="56.037"/>
<g>
	
		<rect x="1.347" y="38.606" transform="matrix(-0.6139 -0.7894 0.7894 -0.6139 5.0685 109.7109)" style="fill:#FFDC40;" width="56.036" height="30.019"/>
	
		<rect x="84.879" y="146.027" transform="matrix(-0.6139 -0.7894 0.7894 -0.6139 55.0831 349.0167)" style="fill:#FFDC40;" width="56.036" height="30.019"/>
</g>
<g>
	
		<rect x="110.638" y="100.762" transform="matrix(-0.9923 -0.1241 0.1241 -0.9923 261.8737 247.8562)" style="fill:#FFAB15;" width="56.037" height="30.02"/>
	
		<rect x="208.632" y="46.003" transform="matrix(-0.7071 -0.7071 0.7071 -0.7071 338.6372 262.293)" style="fill:#FFAB15;" width="30.019" height="30.019"/>
</g>
<rect x="60.53" y="203.107" transform="matrix(-0.7071 -0.7071 0.7071 -0.7071 -25.2772 425.7621)" style="fill:#FFDC40;" width="30.019" height="30.019"/>
<polygon style="fill:#FD4B2D;" points="511.679,0 420.621,91.058 511.679,182.116 "/>
<g>
</g>
<g>
</g>
<g>
</g>
<g>
</g>
<g>
</g>
<g>
</g>
<g>
</g>
<g>
</g>
<g>
</g>
<g>
</g>
<g>
</g>
<g>
</g>
<g>
</g>
<g>
</g>
<g>
</g>
</svg>
